<svg version="1.1" id="Layer_1" xmlns="http://www.w3.org/2000/svg" xmlns:xlink="http://www.w3.org/1999/xlink" x="0px" y="0px"
	 width="100%" viewBox="0 0 2607 1231" enable-background="new 0 0 2607 1231" xml:space="preserve">
<path fill="#010101" opacity="1.000000" stroke="none" 
	d="
M1577.000000,1232.000000 
	C1051.333374,1232.000000 526.166687,1232.000000 1.000000,1232.000000 
	C1.000000,821.666687 1.000000,411.333344 1.000000,1.000000 
	C870.000000,1.000000 1739.000000,1.000000 2608.000000,1.000000 
	C2608.000000,411.333344 2608.000000,821.666687 2608.000000,1232.000000 
	C2264.500000,1232.000000 1921.000000,1232.000000 1577.000000,1232.000000 
M1708.563721,589.996887 
	C1690.555908,574.039001 1669.022339,568.186340 1645.504517,567.820496 
	C1615.549438,567.354675 1589.138306,576.164185 1567.430298,597.371338 
	C1563.955200,600.766235 1560.785889,604.474182 1556.802002,608.762085 
	C1556.195068,596.263794 1555.641479,584.863892 1555.087402,573.455811 
	C1539.324585,573.455811 1524.101929,573.455811 1508.824951,573.455811 
	C1508.824951,669.696167 1508.824951,765.610352 1508.824951,861.517944 
	C1525.249634,861.517944 1541.344604,861.517944 1557.880615,861.517944 
	C1557.880615,859.452332 1557.880493,857.659363 1557.880493,855.866394 
	C1557.880493,790.537781 1557.874023,725.209106 1557.912476,659.880493 
	C1557.913574,657.935974 1557.870361,655.721130 1558.723145,654.089905 
	C1565.793823,640.565063 1575.591797,629.390686 1588.391357,620.994263 
	C1606.793945,608.922363 1626.982544,607.191345 1647.863281,611.763000 
	C1666.626465,615.871216 1679.007935,627.329102 1682.832275,646.462524 
	C1684.678467,655.699524 1685.721924,665.253296 1685.761719,674.669434 
	C1686.016724,734.997314 1685.892334,795.326904 1685.892578,855.655884 
	C1685.892578,857.591187 1685.892578,859.526550 1685.892578,861.424927 
	C1702.703857,861.424927 1718.910889,861.424927 1735.203247,861.424927 
	C1735.313843,860.420959 1735.448486,859.771729 1735.447998,859.122559 
	C1735.397461,795.128479 1735.336426,731.134399 1736.171509,667.006104 
	C1737.000366,666.952881 1737.829346,666.853210 1738.658203,666.853088 
	C1788.657959,666.847473 1838.657715,666.847839 1888.657471,666.863525 
	C1889.939941,666.863892 1891.222290,667.040527 1893.027100,667.173401 
	C1893.027100,801.533752 1893.027100,935.601746 1893.027100,1069.890625 
	C2062.809814,1069.890625 2232.041992,1069.890625 2401.588867,1069.890625 
	C2401.588867,889.155823 2401.588867,708.733826 2401.588867,527.617859 
	C2399.156006,527.617859 2396.861572,527.617859 2394.566895,527.617859 
	C2336.567139,527.617981 2278.567383,527.617859 2220.567627,527.618591 
	C2213.579346,527.618652 2213.562012,527.620728 2213.562012,520.590942 
	C2213.561035,398.091492 2213.564941,275.592010 2213.567627,153.092560 
	C2213.567871,150.520920 2213.567871,147.949265 2213.567871,145.457764 
	C2045.239990,145.457764 1877.828979,145.457764 1709.999878,145.457764 
	C1709.999878,148.473312 1709.999878,151.113007 1709.999878,153.752716 
	C1709.999268,297.085419 1710.002686,440.418152 1709.961548,583.750854 
	C1709.960815,585.997375 1709.413330,588.243713 1708.563721,589.996887 
M1085.811646,571.704163 
	C1040.663696,561.320374 1001.311523,570.769348 969.101318,607.266541 
	C969.101318,554.640442 969.101318,503.560089 969.101318,452.242432 
	C952.578003,452.242432 936.365417,452.242432 920.277771,452.242432 
	C920.277771,588.869019 920.277771,725.218811 920.277771,861.444824 
	C936.729980,861.444824 952.802612,861.444824 969.126831,861.444824 
	C969.126831,859.106201 969.126831,857.116272 969.126831,855.126282 
	C969.126709,790.141724 969.117676,725.157227 969.166931,660.172729 
	C969.168518,658.078430 969.242004,655.709473 970.171692,653.934509 
	C977.006897,640.884399 986.384399,629.946594 998.646057,621.720276 
	C1018.675720,608.282593 1040.583984,606.641846 1063.216309,612.857422 
	C1077.734863,616.844666 1088.331787,626.093750 1092.589966,640.850769 
	C1094.964600,649.079773 1096.775879,657.803894 1096.828369,666.317322 
	C1097.218140,729.466370 1097.102783,792.618530 1097.145752,855.769714 
	C1097.147095,857.688965 1097.145874,859.608215 1097.145874,861.437622 
	C1114.158936,861.437622 1130.396606,861.437622 1146.884888,861.437622 
	C1146.884888,859.928711 1146.884888,858.777161 1146.884888,857.625610 
	C1146.884033,795.807007 1147.042236,733.987549 1146.742554,672.170410 
	C1146.685547,660.399231 1145.626953,648.497559 1143.631348,636.896729 
	C1137.935669,603.786377 1119.557129,581.331970 1085.811646,571.704163 
M1325.288452,865.778809 
	C1350.539429,861.866211 1371.649536,849.798645 1389.906128,832.127319 
	C1391.667114,840.275879 1393.296143,847.710754 1394.875000,855.156311 
	C1395.879517,859.893799 1397.829834,862.738098 1403.596924,861.942566 
	C1408.665283,861.243408 1413.906494,861.796265 1419.071289,861.796204 
	C1428.866821,861.796143 1438.662231,861.796204 1449.017822,861.796204 
	C1448.693359,859.514282 1448.763306,857.656128 1448.151001,856.059814 
	C1441.127197,837.751587 1438.899048,818.653870 1438.849121,799.235962 
	C1438.740601,757.084595 1438.808838,714.932861 1438.717163,672.781433 
	C1438.701660,665.624207 1438.562256,658.440979 1437.948486,651.315552 
	C1434.414551,610.280640 1411.265015,584.618164 1371.349731,573.079529 
	C1346.213867,565.813354 1320.613159,566.018494 1295.230957,571.630188 
	C1265.203369,578.268921 1241.808838,594.822021 1225.769653,621.223877 
	C1219.925415,630.844177 1216.724976,641.367432 1216.967407,652.916870 
	C1233.521362,652.916870 1249.618286,652.916870 1265.857544,652.916870 
	C1267.222290,634.337646 1278.011230,622.540955 1293.615967,614.836121 
	C1311.532349,605.989929 1330.566772,605.729492 1349.700806,609.981689 
	C1368.751831,614.215393 1380.981689,626.238770 1386.685791,644.703247 
	C1390.890991,658.315491 1388.805420,672.383057 1389.304077,686.787903 
	C1387.103027,686.787903 1385.479736,686.787964 1383.856445,686.787903 
	C1370.028076,686.787231 1356.199463,686.758972 1342.371216,686.791748 
	C1316.920776,686.852173 1291.811401,689.235840 1268.021851,699.100281 
	C1232.315796,713.905640 1211.410889,739.337219 1210.757812,779.332886 
	C1210.270142,809.191650 1222.494507,832.598267 1246.653320,849.523438 
	C1270.084106,865.938538 1296.657471,869.180420 1325.288452,865.778809 
M672.262024,824.994629 
	C671.664124,813.023132 670.632507,801.054688 670.545959,789.079529 
	C670.226929,744.928101 670.657227,700.767639 669.965698,656.623718 
	C669.356750,617.756409 648.783813,589.537781 612.461182,576.041016 
	C590.317139,567.812744 567.397156,566.633911 544.065369,568.863281 
	C513.359802,571.797302 487.420746,583.987854 467.218048,607.546936 
	C456.127472,620.480042 448.723297,635.026550 448.778198,652.849243 
	C465.258057,652.849243 481.484497,652.849243 497.782532,652.849243 
	C498.644653,636.182434 507.793121,624.986450 521.201599,617.130066 
	C540.870728,605.605347 562.145813,605.295715 583.603699,610.517883 
	C600.537170,614.638916 611.755005,625.787231 617.656067,642.028503 
	C622.906921,656.480164 620.619263,671.542664 621.074829,686.787964 
	C605.466614,686.787964 590.477173,686.235901 575.546631,686.936829 
	C559.292419,687.699951 542.987305,688.899963 526.897461,691.238159 
	C508.764679,693.873291 491.993469,700.897522 476.959930,711.514343 
	C454.407379,727.441223 443.631836,749.567139 442.673615,776.978455 
	C441.459625,811.705444 455.942749,838.450989 486.315704,854.056641 
	C528.933167,875.953613 570.560059,871.215088 609.281860,842.865845 
	C613.663452,839.658020 617.587585,835.825378 622.148682,831.918579 
	C622.464417,834.038269 622.606445,835.681641 622.964478,837.276489 
	C624.526794,844.235962 626.191589,851.172546 627.735413,858.135986 
	C628.390320,861.089905 630.043030,861.906311 633.038696,861.869507 
	C646.866516,861.699646 660.697510,861.795227 674.527405,861.795532 
	C676.462769,861.795593 678.398132,861.795532 680.641174,861.795532 
	C677.797729,849.353516 675.114502,837.612610 672.262024,824.994629 
M168.003769,798.500000 
	C168.003769,819.444885 168.003769,840.389771 168.003769,861.465149 
	C185.407272,861.465149 202.283966,861.465149 219.722702,861.465149 
	C219.722702,804.249207 219.722702,747.363770 219.722702,689.951782 
	C274.171112,689.951782 328.057281,689.951782 381.826477,689.951782 
	C381.826477,675.684143 381.826477,661.950012 381.826477,647.792603 
	C327.592255,647.792603 273.677979,647.792603 219.978683,647.792603 
	C219.978683,603.455200 219.978683,559.548706 219.978683,515.279907 
	C282.993195,515.279907 345.605957,515.279907 408.351685,515.279907 
	C408.351685,501.215942 408.351685,487.520447 408.351685,473.748169 
	C328.086334,473.748169 248.174194,473.748169 168.003769,473.748169 
	C168.003769,581.877075 168.003769,689.688538 168.003769,798.500000 
M789.683594,860.001160 
	C789.692688,793.845337 789.697144,727.689514 789.733337,661.533691 
	C789.734436,659.559082 789.571533,657.367798 790.324097,655.643677 
	C797.619568,638.928589 809.044006,626.301331 826.600952,620.017639 
	C841.711304,614.609497 857.252625,614.487305 872.943542,616.454956 
	C875.006897,616.713745 877.074219,616.941101 879.814941,617.262085 
	C879.814941,603.611145 879.803894,590.634705 879.819397,577.658325 
	C879.827698,570.700195 879.662109,570.186890 872.607178,569.145569 
	C839.731506,564.293030 812.415405,573.402527 792.724182,601.354736 
	C791.945496,602.460144 790.965637,603.423889 790.079529,604.453613 
	C789.634460,604.351990 789.189331,604.250366 788.744263,604.148682 
	C788.744263,593.905640 788.744263,583.662537 788.744263,573.469604 
	C772.029846,573.469604 756.290955,573.469604 740.556885,573.469604 
	C740.556885,669.698975 740.556885,765.581421 740.556885,861.775330 
	C756.555908,861.775330 772.195679,861.784363 787.835388,861.738342 
	C788.394958,861.736694 788.952942,861.191223 789.683594,860.001160 
z"/>
<path fill="#855AFA" opacity="1.000000" stroke="none" 
	d="
M1709.120972,590.490173 
	C1709.413330,588.243713 1709.960815,585.997375 1709.961548,583.750854 
	C1710.002686,440.418152 1709.999268,297.085419 1709.999878,153.752716 
	C1709.999878,151.113007 1709.999878,148.473312 1709.999878,145.457764 
	C1877.828979,145.457764 2045.239990,145.457764 2213.567871,145.457764 
	C2213.567871,147.949265 2213.567871,150.520920 2213.567627,153.092560 
	C2213.564941,275.592010 2213.561035,398.091492 2213.562012,520.590942 
	C2213.562012,527.620728 2213.579346,527.618652 2220.567627,527.618591 
	C2278.567383,527.617859 2336.567139,527.617981 2394.566895,527.617859 
	C2396.861572,527.617859 2399.156006,527.617859 2401.588867,527.617859 
	C2401.588867,708.733826 2401.588867,889.155823 2401.588867,1069.890625 
	C2232.041992,1069.890625 2062.809814,1069.890625 1893.027100,1069.890625 
	C1893.027100,935.601746 1893.027100,801.533752 1893.027100,667.173401 
	C1891.222290,667.040527 1889.939941,666.863892 1888.657471,666.863525 
	C1838.657715,666.847839 1788.657959,666.847473 1738.658203,666.853088 
	C1737.829346,666.853210 1737.000366,666.952881 1735.243408,666.986633 
	C1726.402954,666.967163 1718.490723,666.967163 1709.994141,666.967163 
	C1709.994141,664.515930 1709.994263,662.737549 1709.994263,660.959167 
	C1709.993652,639.395691 1710.015259,617.832214 1709.954712,596.268921 
	C1709.949219,594.341919 1709.411499,592.416382 1709.120972,590.490173 
M2285.500000,1034.770020 
	C2310.495605,1034.770752 2335.492676,1034.644531 2360.486084,1034.885254 
	C2365.192871,1034.930420 2366.295166,1033.484009 2366.291992,1028.987671 
	C2366.186523,875.679810 2366.203125,722.371887 2366.201904,569.064026 
	C2366.201660,567.285217 2366.201660,565.506409 2366.201660,563.500671 
	C2364.296875,563.353638 2363.004883,563.167175 2361.712646,563.166687 
	C2313.887207,563.148254 2266.061523,563.209473 2218.236572,563.040344 
	C2213.787842,563.024597 2213.501953,564.984558 2213.510986,568.433350 
	C2213.590088,598.928101 2213.558594,629.423096 2213.559570,659.918030 
	C2213.559814,662.036621 2213.559570,664.155212 2213.559570,666.859619 
	C2118.352295,666.859619 2023.806519,666.859619 1929.164551,666.859619 
	C1929.164551,789.778992 1929.164551,912.105408 1929.164551,1034.769897 
	C2047.920776,1034.769897 2166.210449,1034.769897 2285.500000,1034.770020 
M1745.697510,364.499969 
	C1745.697510,453.226166 1745.697510,541.952332 1745.697510,630.669434 
	C1795.246460,630.669434 1843.953125,630.669434 1893.208496,630.669434 
	C1893.208496,596.184021 1893.208496,562.114990 1893.208496,527.478271 
	C1988.328979,527.478271 2082.899658,527.478271 2177.568359,527.478271 
	C2177.568359,411.693573 2177.568359,296.485168 2177.568359,181.232117 
	C2033.503418,181.232117 1889.799805,181.232117 1745.697388,181.232117 
	C1745.697388,242.242844 1745.697388,302.871399 1745.697510,364.499969 
M2158.499756,631.088928 
	C2164.905029,631.088928 2171.310303,631.088928 2177.488525,631.088928 
	C2177.488525,607.919983 2177.488525,585.693665 2177.488525,563.445129 
	C2094.472900,563.445129 2011.893433,563.445129 1929.150879,563.445129 
	C1929.150879,586.091858 1929.150879,608.435120 1929.150879,631.088928 
	C2005.572266,631.088928 2081.536133,631.088928 2158.499756,631.088928 
z"/>
<path fill="#FDFDFD" opacity="1.000000" stroke="none" 
	d="
M1086.204102,571.810791 
	C1119.557129,581.331970 1137.935669,603.786377 1143.631348,636.896729 
	C1145.626953,648.497559 1146.685547,660.399231 1146.742554,672.170410 
	C1147.042236,733.987549 1146.884033,795.807007 1146.884888,857.625610 
	C1146.884888,858.777161 1146.884888,859.928711 1146.884888,861.437622 
	C1130.396606,861.437622 1114.158936,861.437622 1097.145874,861.437622 
	C1097.145874,859.608215 1097.147095,857.688965 1097.145752,855.769714 
	C1097.102783,792.618530 1097.218140,729.466370 1096.828369,666.317322 
	C1096.775879,657.803894 1094.964600,649.079773 1092.589966,640.850769 
	C1088.331787,626.093750 1077.734863,616.844666 1063.216309,612.857422 
	C1040.583984,606.641846 1018.675720,608.282593 998.646057,621.720276 
	C986.384399,629.946594 977.006897,640.884399 970.171692,653.934509 
	C969.242004,655.709473 969.168518,658.078430 969.166931,660.172729 
	C969.117676,725.157227 969.126709,790.141724 969.126831,855.126282 
	C969.126831,857.116272 969.126831,859.106201 969.126831,861.444824 
	C952.802612,861.444824 936.729980,861.444824 920.277771,861.444824 
	C920.277771,725.218811 920.277771,588.869019 920.277771,452.242432 
	C936.365417,452.242432 952.578003,452.242432 969.101318,452.242432 
	C969.101318,503.560089 969.101318,554.640442 969.101318,607.266541 
	C1001.311523,570.769348 1040.663696,561.320374 1086.204102,571.810791 
z"/>
<path fill="#FDFDFD" opacity="1.000000" stroke="none" 
	d="
M1324.856445,865.844788 
	C1296.657471,869.180420 1270.084106,865.938538 1246.653320,849.523438 
	C1222.494507,832.598267 1210.270142,809.191650 1210.757812,779.332886 
	C1211.410889,739.337219 1232.315796,713.905640 1268.021851,699.100281 
	C1291.811401,689.235840 1316.920776,686.852173 1342.371216,686.791748 
	C1356.199463,686.758972 1370.028076,686.787231 1383.856445,686.787903 
	C1385.479736,686.787964 1387.103027,686.787903 1389.304077,686.787903 
	C1388.805420,672.383057 1390.890991,658.315491 1386.685791,644.703247 
	C1380.981689,626.238770 1368.751831,614.215393 1349.700806,609.981689 
	C1330.566772,605.729492 1311.532349,605.989929 1293.615967,614.836121 
	C1278.011230,622.540955 1267.222290,634.337646 1265.857544,652.916870 
	C1249.618286,652.916870 1233.521362,652.916870 1216.967407,652.916870 
	C1216.724976,641.367432 1219.925415,630.844177 1225.769653,621.223877 
	C1241.808838,594.822021 1265.203369,578.268921 1295.230957,571.630188 
	C1320.613159,566.018494 1346.213867,565.813354 1371.349731,573.079529 
	C1411.265015,584.618164 1434.414551,610.280640 1437.948486,651.315552 
	C1438.562256,658.440979 1438.701660,665.624207 1438.717163,672.781433 
	C1438.808838,714.932861 1438.740601,757.084595 1438.849121,799.235962 
	C1438.899048,818.653870 1441.127197,837.751587 1448.151001,856.059814 
	C1448.763306,857.656128 1448.693359,859.514282 1449.017822,861.796204 
	C1438.662231,861.796204 1428.866821,861.796143 1419.071289,861.796204 
	C1413.906494,861.796265 1408.665283,861.243408 1403.596924,861.942566 
	C1397.829834,862.738098 1395.879517,859.893799 1394.875000,855.156311 
	C1393.296143,847.710754 1391.667114,840.275879 1389.906128,832.127319 
	C1371.649536,849.798645 1350.539429,861.866211 1324.856445,865.844788 
M1389.254150,737.504089 
	C1389.254150,732.264099 1389.254150,727.024170 1389.254150,721.517151 
	C1373.196899,721.517151 1357.892700,721.293396 1342.597900,721.578064 
	C1326.249268,721.882385 1310.098999,723.657837 1294.469360,729.038208 
	C1273.178101,736.367432 1260.977783,751.849792 1260.230835,773.229065 
	C1259.472900,794.922363 1272.936890,815.118408 1294.046875,821.244995 
	C1326.239746,830.587952 1367.431274,815.734192 1385.470703,787.486389 
	C1388.052246,783.443909 1389.487061,779.415894 1389.357056,774.476135 
	C1389.041504,762.492310 1389.254272,750.494507 1389.254150,737.504089 
z"/>
<path fill="#FDFDFD" opacity="1.000000" stroke="none" 
	d="
M672.346680,825.433167 
	C675.114502,837.612610 677.797729,849.353516 680.641174,861.795532 
	C678.398132,861.795532 676.462769,861.795593 674.527405,861.795532 
	C660.697510,861.795227 646.866516,861.699646 633.038696,861.869507 
	C630.043030,861.906311 628.390320,861.089905 627.735413,858.135986 
	C626.191589,851.172546 624.526794,844.235962 622.964478,837.276489 
	C622.606445,835.681641 622.464417,834.038269 622.148682,831.918579 
	C617.587585,835.825378 613.663452,839.658020 609.281860,842.865845 
	C570.560059,871.215088 528.933167,875.953613 486.315704,854.056641 
	C455.942749,838.450989 441.459625,811.705444 442.673615,776.978455 
	C443.631836,749.567139 454.407379,727.441223 476.959930,711.514343 
	C491.993469,700.897522 508.764679,693.873291 526.897461,691.238159 
	C542.987305,688.899963 559.292419,687.699951 575.546631,686.936829 
	C590.477173,686.235901 605.466614,686.787964 621.074829,686.787964 
	C620.619263,671.542664 622.906921,656.480164 617.656067,642.028503 
	C611.755005,625.787231 600.537170,614.638916 583.603699,610.517883 
	C562.145813,605.295715 540.870728,605.605347 521.201599,617.130066 
	C507.793121,624.986450 498.644653,636.182434 497.782532,652.849243 
	C481.484497,652.849243 465.258057,652.849243 448.778198,652.849243 
	C448.723297,635.026550 456.127472,620.480042 467.218048,607.546936 
	C487.420746,583.987854 513.359802,571.797302 544.065369,568.863281 
	C567.397156,566.633911 590.317139,567.812744 612.461182,576.041016 
	C648.783813,589.537781 669.356750,617.756409 669.965698,656.623718 
	C670.657227,700.767639 670.226929,744.928101 670.545959,789.079529 
	C670.632507,801.054688 671.664124,813.023132 672.346680,825.433167 
M578.607056,818.175964 
	C590.645569,813.570251 600.738647,806.056458 609.656799,796.946533 
	C617.285461,789.153809 622.567139,780.604614 621.274841,768.662842 
	C620.206421,758.789551 621.056519,748.708679 621.056519,738.719788 
	C621.056519,733.112305 621.056519,727.504883 621.056519,721.467407 
	C605.432739,721.467407 590.310791,721.222656 575.200134,721.532166 
	C558.029358,721.883850 541.034790,723.585205 524.718933,729.644836 
	C502.611481,737.855286 491.028320,754.793396 492.081635,777.836731 
	C493.048096,798.979980 506.949402,816.411987 527.858887,821.722656 
	C544.776184,826.019470 561.526428,824.191406 578.607056,818.175964 
z"/>
<path fill="#FCFCFC" opacity="1.000000" stroke="none" 
	d="
M168.003769,798.000000 
	C168.003769,689.688538 168.003769,581.877075 168.003769,473.748169 
	C248.174194,473.748169 328.086334,473.748169 408.351685,473.748169 
	C408.351685,487.520447 408.351685,501.215942 408.351685,515.279907 
	C345.605957,515.279907 282.993195,515.279907 219.978683,515.279907 
	C219.978683,559.548706 219.978683,603.455200 219.978683,647.792603 
	C273.677979,647.792603 327.592255,647.792603 381.826477,647.792603 
	C381.826477,661.950012 381.826477,675.684143 381.826477,689.951782 
	C328.057281,689.951782 274.171112,689.951782 219.722702,689.951782 
	C219.722702,747.363770 219.722702,804.249207 219.722702,861.465149 
	C202.283966,861.465149 185.407272,861.465149 168.003769,861.465149 
	C168.003769,840.389771 168.003769,819.444885 168.003769,798.000000 
z"/>
<path fill="#FEFEFE" opacity="1.000000" stroke="none" 
	d="
M1708.842285,590.243530 
	C1709.411499,592.416382 1709.949219,594.341919 1709.954712,596.268921 
	C1710.015259,617.832214 1709.993652,639.395691 1709.994263,660.959167 
	C1709.994263,662.737549 1709.994141,664.515930 1709.994141,666.967163 
	C1718.490723,666.967163 1726.402954,666.967163 1734.795654,667.053711 
	C1735.336426,731.134399 1735.397461,795.128479 1735.447998,859.122559 
	C1735.448486,859.771729 1735.313843,860.420959 1735.203247,861.424927 
	C1718.910889,861.424927 1702.703857,861.424927 1685.892578,861.424927 
	C1685.892578,859.526550 1685.892578,857.591187 1685.892578,855.655884 
	C1685.892334,795.326904 1686.016724,734.997314 1685.761719,674.669434 
	C1685.721924,665.253296 1684.678467,655.699524 1682.832275,646.462524 
	C1679.007935,627.329102 1666.626465,615.871216 1647.863281,611.763000 
	C1626.982544,607.191345 1606.793945,608.922363 1588.391357,620.994263 
	C1575.591797,629.390686 1565.793823,640.565063 1558.723145,654.089905 
	C1557.870361,655.721130 1557.913574,657.935974 1557.912476,659.880493 
	C1557.874023,725.209106 1557.880493,790.537781 1557.880493,855.866394 
	C1557.880493,857.659363 1557.880615,859.452332 1557.880615,861.517944 
	C1541.344604,861.517944 1525.249634,861.517944 1508.824951,861.517944 
	C1508.824951,765.610352 1508.824951,669.696167 1508.824951,573.455811 
	C1524.101929,573.455811 1539.324585,573.455811 1555.087402,573.455811 
	C1555.641479,584.863892 1556.195068,596.263794 1556.802002,608.762085 
	C1560.785889,604.474182 1563.955200,600.766235 1567.430298,597.371338 
	C1589.138306,576.164185 1615.549438,567.354675 1645.504517,567.820496 
	C1669.022339,568.186340 1690.555908,574.039001 1708.842285,590.243530 
z"/>
<path fill="#FBFBFB" opacity="1.000000" stroke="none" 
	d="
M789.597656,860.450195 
	C788.952942,861.191223 788.394958,861.736694 787.835388,861.738342 
	C772.195679,861.784363 756.555908,861.775330 740.556885,861.775330 
	C740.556885,765.581421 740.556885,669.698975 740.556885,573.469604 
	C756.290955,573.469604 772.029846,573.469604 788.744263,573.469604 
	C788.744263,583.662537 788.744263,593.905640 788.744263,604.148682 
	C789.189331,604.250366 789.634460,604.351990 790.079529,604.453613 
	C790.965637,603.423889 791.945496,602.460144 792.724182,601.354736 
	C812.415405,573.402527 839.731506,564.293030 872.607178,569.145569 
	C879.662109,570.186890 879.827698,570.700195 879.819397,577.658325 
	C879.803894,590.634705 879.814941,603.611145 879.814941,617.262085 
	C877.074219,616.941101 875.006897,616.713745 872.943542,616.454956 
	C857.252625,614.487305 841.711304,614.609497 826.600952,620.017639 
	C809.044006,626.301331 797.619568,638.928589 790.324097,655.643677 
	C789.571533,657.367798 789.734436,659.559082 789.733337,661.533691 
	C789.697144,727.689514 789.692688,793.845337 789.597656,860.450195 
z"/>
<path fill="#010102" opacity="1.000000" stroke="none" 
	d="
M2285.000000,1034.770020 
	C2166.210449,1034.769897 2047.920776,1034.769897 1929.164551,1034.769897 
	C1929.164551,912.105408 1929.164551,789.778992 1929.164551,666.859619 
	C2023.806519,666.859619 2118.352295,666.859619 2213.559570,666.859619 
	C2213.559570,664.155212 2213.559814,662.036621 2213.559570,659.918030 
	C2213.558594,629.423096 2213.590088,598.928101 2213.510986,568.433350 
	C2213.501953,564.984558 2213.787842,563.024597 2218.236572,563.040344 
	C2266.061523,563.209473 2313.887207,563.148254 2361.712646,563.166687 
	C2363.004883,563.167175 2364.296875,563.353638 2366.201660,563.500671 
	C2366.201660,565.506409 2366.201660,567.285217 2366.201904,569.064026 
	C2366.203125,722.371887 2366.186523,875.679810 2366.291992,1028.987671 
	C2366.295166,1033.484009 2365.192871,1034.930420 2360.486084,1034.885254 
	C2335.492676,1034.644531 2310.495605,1034.770752 2285.000000,1034.770020 
z"/>
<path fill="#010102" opacity="1.000000" stroke="none" 
	d="
M1745.697510,363.999939 
	C1745.697388,302.871399 1745.697388,242.242844 1745.697388,181.232117 
	C1889.799805,181.232117 2033.503418,181.232117 2177.568359,181.232117 
	C2177.568359,296.485168 2177.568359,411.693573 2177.568359,527.478271 
	C2082.899658,527.478271 1988.328979,527.478271 1893.208496,527.478271 
	C1893.208496,562.114990 1893.208496,596.184021 1893.208496,630.669434 
	C1843.953125,630.669434 1795.246460,630.669434 1745.697510,630.669434 
	C1745.697510,541.952332 1745.697510,453.226166 1745.697510,363.999939 
z"/>
<path fill="#020104" opacity="1.000000" stroke="none" 
	d="
M2158.000000,631.088928 
	C2081.536133,631.088928 2005.572266,631.088928 1929.150879,631.088928 
	C1929.150879,608.435120 1929.150879,586.091858 1929.150879,563.445129 
	C2011.893433,563.445129 2094.472900,563.445129 2177.488525,563.445129 
	C2177.488525,585.693665 2177.488525,607.919983 2177.488525,631.088928 
	C2171.310303,631.088928 2164.905029,631.088928 2158.000000,631.088928 
z"/>
<path fill="#030303" opacity="1.000000" stroke="none" 
	d="
M1389.254150,738.003235 
	C1389.254272,750.494507 1389.041504,762.492310 1389.357056,774.476135 
	C1389.487061,779.415894 1388.052246,783.443909 1385.470703,787.486389 
	C1367.431274,815.734192 1326.239746,830.587952 1294.046875,821.244995 
	C1272.936890,815.118408 1259.472900,794.922363 1260.230835,773.229065 
	C1260.977783,751.849792 1273.178101,736.367432 1294.469360,729.038208 
	C1310.098999,723.657837 1326.249268,721.882385 1342.597900,721.578064 
	C1357.892700,721.293396 1373.196899,721.517151 1389.254150,721.517151 
	C1389.254150,727.024170 1389.254150,732.264099 1389.254150,738.003235 
z"/>
<path fill="#030303" opacity="1.000000" stroke="none" 
	d="
M578.268188,818.369873 
	C561.526428,824.191406 544.776184,826.019470 527.858887,821.722656 
	C506.949402,816.411987 493.048096,798.979980 492.081635,777.836731 
	C491.028320,754.793396 502.611481,737.855286 524.718933,729.644836 
	C541.034790,723.585205 558.029358,721.883850 575.200134,721.532166 
	C590.310791,721.222656 605.432739,721.467407 621.056519,721.467407 
	C621.056519,727.504883 621.056519,733.112305 621.056519,738.719788 
	C621.056519,748.708679 620.206421,758.789551 621.274841,768.662842 
	C622.567139,780.604614 617.285461,789.153809 609.656799,796.946533 
	C600.738647,806.056458 590.645569,813.570251 578.268188,818.369873 
z"/>
</svg>